#!OML:ASF X:\für Bonn\!DataBase\2005_08_12_Daniel\c3d\Daniel.ASF
:FULLY-SPECIFIED
:DEGREES
18
root 15.7253 17.2369 0.857966 322.963 78.3443 331.142
lowerback 15.3328 -0.880649 7.68699
upperback 3.67308 0.240905 0.519676
thorax -4.65254 0.121549 -3.85132
lowerneck -2.892 3.4307 -3.48896
upperneck 3.07446 4.98916 -5.13736
head 1.49163 2.38215 -0.906524
rclavicle 1.47473e-014 1.49089e-014
rhumerus -54.5419 9.05833 -97.2938
rradius 68.0785
rwrist 3.24468
rhand -32.8443 26.7693
rfingers 7.12502
rthumb -6.06388 -3.12393
lclavicle 1.47473e-014 1.49089e-014
lhumerus 119.502 179.637 271.174
lradius 79.2136
lwrist 11.9569
lhand 1.82971 -9.79459
lfingers 7.12502
lthumb 27.3417 18.2424
rfemur -2.66953 1.76837 23.6096
rtibia 48.2119
rfoot -3.64504 3.56157
rtoes -10.029
lfemur -5.22769 2.33939 -15.0128
ltibia 61.5228
lfoot -9.23545 2.76343
ltoes -14.8458
19
root 16.0575 17.5065 0.865931 323.633 78.3977 331.511
lowerback 13.5165 -0.835254 7.79657
upperback 3.41372 0.12484 0.392642
thorax -3.95185 0.0700745 -4.01524
lowerneck -2.39489 3.5814 -3.61672
upperneck 4.02216 5.2019 -4.65184
head 1.69164 2.47406 -0.731382
rclavicle 5.71506e-016 -2.22639e-014
rhumerus -55.742 10.5367 -97.7757
rradius 69.6145
rwrist 3.34015
rhand -32.33 26.627
rfingers 7.12502
rthumb -5.56738 -3.27985
lclavicle 5.71506e-016 -2.22639e-014
lhumerus 118.624 180.466 270.453
lradius 80.8431
lwrist 12.2426
lhand 2.34315 -9.09518
lfingers 7.12502
lthumb 27.8327 18.8634
rfemur -0.755348 2.2834 23.5374
rtibia 44.9423
rfoot 0.981652 1.78107
rtoes -10.4638
lfemur -4.00615 2.69652 -14.9034
ltibia 59.2364
lfoot -3.89443 2.0756
ltoes -13.5529
20
root 16.3791 17.7803 0.87548 324.334 78.4966 331.865
lowerback 11.8195 -0.794891 7.81846
upperback 3.1063 0.00535202 0.275257
thorax -3.36098 0.0128436 -4.12449
lowerneck -1.8059 3.72142 -3.7533
upperneck 4.83604 5.38628 -4.17312
head 1.83244 2.55944 -0.560439
rclavicle 1.1778e-014 -1.19271e-015
rhumerus -57.2247 11.9808 -98.226
rradius 71.5308
rwrist 3.26564
rhand -31.537 26.3492
rfingers 7.12502
rthumb -4.80163 -3.57643
lclavicle 1.1778e-014 -1.19271e-015
lhumerus 117.617 181.25 269.728
lradius 82.5973
lwrist 12.6157
lhand 2.72638 -8.52274
lfingers 7.12502
lthumb 28.1991 19.3759
rfemur 0.887152 2.96259 23.5954
rtibia 41.9343
rfoot 5.74467 -0.289064
rtoes -11.0322
lfemur -3.10436 2.88552 -14.8634
ltibia 57.2609
lfoot 1.34669 1.24385
ltoes -12.5874
21
root 16.6858 18.0521 0.884479 325.1 78.6247 332.231
lowerback 10.2727 -0.761572 7.80128
upperback 2.76496 -0.109312 0.134567
thorax -2.88182 -0.0461164 -4.24226
lowerneck -1.24783 3.84053 -3.85218
upperneck 5.6157 5.53933 -3.69903
head 1.96902 2.63215 -0.397488
rclavicle -2.49475e-014 -8.34896e-015
rhumerus -58.7387 13.3179 -98.6431
rradius 73.6741
rwrist 2.91329
rhand -30.3645 26.0881
rfingers 7.12502
rthumb -3.66946 -3.86005
lclavicle -2.49475e-014 -8.34896e-015
lhumerus 116.571 182.074 268.942
lradius 84.5244
lwrist 13.2528
lhand 3.02651 -7.94534
lfingers 7.12502
lthumb 28.4859 19.9057
rfemur 2.15021 3.83054 23.8123
rtibia 39.3695
rfoot 10.6697 -2.28661
rtoes -10.3619
lfemur -2.56056 2.94739 -14.8829
ltibia 55.6794
lfoot 6.27767 0.157138
ltoes -12.3498
22
root 16.9769 18.3172 0.894169 325.962 78.8106 332.682
lowerback 8.93362 -0.742043 7.67009
upperback 2.39222 -0.226121 0.0120816
thorax -2.54599 -0.110848 -4.28091
lowerneck -0.651459 3.94466 -4.04191
upperneck 6.26596 5.66238 -3.20178
head 2.05356 2.69411 -0.215229
rclavicle -8.69062e-015 1.86858e-014
rhumerus -60.3689 14.5366 -98.9573
rradius 75.9081
rwrist 2.57739
rhand -29.0079 26.0665
rfingers 7.12502
rthumb -2.35931 -3.90015
lclavicle -8.69062e-015 1.86858e-014
lhumerus 115.671 182.878 268.145
lradius 86.4318
lwrist 14.0084
lhand 3.34772 -7.60861
lfingers 7.12502
lthumb 28.7928 20.1906
rfemur 3.05221 4.91609 24.1666
rtibia 37.3711
rfoot 15.4612 -3.77535
rtoes -9.94628
lfemur -2.32412 2.81812 -15.0193
ltibia 54.5472
lfoot 10.4323 -1.0522
ltoes -12.9947
23
root 17.2556 18.5723 0.90306 327.425 79.0709 333.732
lowerback 7.73988 -0.71931 7.34458
upperback 2.03852 -0.3344 -0.128896
thorax -2.26547 -0.170909 -4.23382
lowerneck -0.0773384 4.01562 -4.26411
upperneck 6.81123 5.73793 -2.75382
head 2.10895 2.73356 -0.0446933
rclavicle -2.7659e-014 2.42517e-014
rhumerus -62.0864 15.7061 -99.1613
rradius 78.1795
rwrist 2.1778
rhand -27.5292 26.4106
rfingers 7.12502
rthumb -0.931202 -3.56714
lclavicle -2.7659e-014 2.42517e-014
lhumerus 114.827 183.729 267.313
lradius 88.4458
lwrist 14.9333
lhand 3.63615 -7.45066
lfingers 7.12502
lthumb 29.0683 20.3013
rfemur 3.54804 6.08316 24.4489
rtibia 36.0362
rfoot 20.0501 -4.36551
rtoes -10.2733
lfemur -2.33026 2.37131 -15.4094
ltibia 53.8438
lfoot 13.7834 -1.99711
ltoes -12.5736
24
root 17.518 18.8148 0.911827 328.722 79.3174 334.63
lowerback 6.77704 -0.713588 7.01395
upperback 1.6712 -0.433568 -0.245185
thorax -2.12284 -0.230192 -4.16117
lowerneck 0.642415 4.08189 -4.56167
upperneck 7.17921 5.78559 -2.27182
head 2.07792 2.76384 0.141834
rclavicle -2.05482e-014 1.98785e-015
rhumerus -63.8106 16.7425 -99.2726
rradius 80.4683
rwrist 1.91573
rhand -25.9625 27.0139
rfingers 7.12502
rthumb 0.582001 -2.96505
lclavicle -2.05482e-014 1.98785e-015
lhumerus 113.893 184.593 266.444
lradius 90.5869
lwrist 15.9355
lhand 4.02305 -7.53119
lfingers 7.12502
lthumb 29.4377 20.1564
rfemur 3.63795 7.22811 24.817
rtibia 35.397
rfoot 24.0823 -4.30269
rtoes -11.2014
lfemur -2.56714 1.80734 -15.8165
ltibia 53.6055
lfoot 16.1628 -2.91458
ltoes -12.5103
